<svg xmlns="http://www.w3.org/2000/svg" version="1.1" xmlns:xlink="http://www.w3.org/1999/xlink" xmlns:svgjs="http://svgjs.com/svgjs" width="1440" height="689" preserveAspectRatio="none" viewBox="0 0 1440 689">
    <g mask="url(&quot;#SvgjsMask1345&quot;)" fill="none">
        <rect width="1440" height="689" x="0" y="0" fill="url(#SvgjsLinearGradient1346)"></rect>
        <path d="M481.89067069029574 75.79424818543849L521.4773997934038 205.27660472956217 650.9597563375276 165.68987562645407 611.3730272344194 36.2075190823304z" fill="rgba(28, 83, 142, 0.4)" class="triangle-float1"></path>
        <path d="M604.1575520992343 489.93457089115117L773.1542617462413 604.1587741194254 788.6949082309102 426.52837198093573z" fill="rgba(28, 83, 142, 0.4)" class="triangle-float3"></path>
        <path d="M1006.26 45.61 a168.3 168.3 0 1 0 336.6 0 a168.3 168.3 0 1 0 -336.6 0z" fill="rgba(28, 83, 142, 0.4)" class="triangle-float1"></path>
        <path d="M874.5704311062257 147.74898574415695L809.9499660869863 324.7671641775738 972.6517904169159 298.9977267912968z" fill="rgba(28, 83, 142, 0.4)" class="triangle-float3"></path>
        <path d="M1305.7085555043589 433.8967357460781L1423.7557855238626 386.2025589310033 1376.0616087087878 268.1553289114994 1258.014378689284 315.8495057265742z" fill="rgba(28, 83, 142, 0.4)" class="triangle-float1"></path>
        <path d="M185.689,448.106C216.328,448.202,242.317,427.734,257.395,401.062C272.215,374.847,274.904,342.927,259.911,316.811C244.858,290.591,215.922,275.92,185.689,276.16C155.88,276.397,128.245,292.076,113.484,317.975C98.863,343.629,100.431,374.795,114.757,400.615C129.554,427.282,155.192,448.01,185.689,448.106" fill="rgba(28, 83, 142, 0.4)" class="triangle-float3"></path>
        <path d="M1410.984,358.722C1449.758,357.268,1480.885,327.954,1497.29,292.792C1511.388,262.575,1500.932,229.525,1484.901,200.288C1468.005,169.473,1446.046,137.771,1410.984,135.387C1372.539,132.773,1337.115,155.826,1317.334,188.895C1296.993,222.902,1293.556,265.014,1312.691,299.714C1332.47,335.581,1370.054,360.257,1410.984,358.722" fill="rgba(28, 83, 142, 0.4)" class="triangle-float3"></path>
        <path d="M555.3932718919597 287.4974207947836L506.7430027200614 178.22712717436144 397.47270909963925 226.87739634625976 446.12297827153753 336.14768996668187z" fill="rgba(28, 83, 142, 0.4)" class="triangle-float3"></path>
        <path d="M1024.995,881.209C1081.41,879.312,1111.757,821.938,1140.398,773.297C1169.697,723.537,1209.381,666.891,1180.701,616.772C1151.934,566.502,1082.863,569.195,1024.995,571.631C972.788,573.829,917.918,584.538,890.455,628.992C861.797,675.381,869.654,733.428,895.317,781.538C922.819,833.094,966.595,883.173,1024.995,881.209" fill="rgba(28, 83, 142, 0.4)" class="triangle-float2"></path>
        <path d="M229.978,689.729C272.552,687.339,302.191,651.89,322.593,614.446C341.906,579.001,349.643,538.345,332.329,501.882C312.185,459.458,276.915,420.988,229.978,419.394C180.892,417.727,138.332,451.369,114.832,494.496C92.354,535.747,93.551,585.498,117.416,625.963C140.896,665.774,183.832,692.319,229.978,689.729" fill="rgba(28, 83, 142, 0.4)" class="triangle-float3"></path>
    </g>
    <defs>
        <mask id="SvgjsMask1345">
            <rect width="1440" height="689" fill="#ffffff"></rect>
        </mask>
        <linearGradient x1="13.04%" y1="-27.25%" x2="86.96%" y2="127.25%" gradientUnits="userSpaceOnUse" id="SvgjsLinearGradient1346">
            <stop stop-color="#0e2a47" offset="0"></stop>
            <stop stop-color="rgba(255, 255, 255, 1)" offset="0.47"></stop>
            <stop stop-color="rgba(255, 255, 255, 1)" offset="1"></stop>
        </linearGradient>
        <style>
            @keyframes float1 {
                0%{transform: translate(0, 0)}
                50%{transform: translate(-10px, 0)}
                100%{transform: translate(0, 0)}
            }

            .triangle-float1 {
                animation: float1 5s infinite;
            }

            @keyframes float2 {
                0%{transform: translate(0, 0)}
                50%{transform: translate(-5px, -5px)}
                100%{transform: translate(0, 0)}
            }

            .triangle-float2 {
                animation: float2 4s infinite;
            }

            @keyframes float3 {
                0%{transform: translate(0, 0)}
                50%{transform: translate(0, -10px)}
                100%{transform: translate(0, 0)}
            }

            .triangle-float3 {
                animation: float3 6s infinite;
            }
        </style>
    </defs>
</svg>